<?xml version="1.0" encoding="utf-8"?>
<!-- Generator: Adobe Illustrator 22.0.1, SVG Export Plug-In . SVG Version: 6.00 Build 0)  -->
<svg version="1.1" id="_x31_0" xmlns="http://www.w3.org/2000/svg" xmlns:xlink="http://www.w3.org/1999/xlink" x="0px" y="0px"
	 viewBox="0 0 512 512" style="enable-background:new 0 0 512 512;" xml:space="preserve">
<style type="text/css">
	.st0{display:none;}
	.st1{display:inline;fill:#2A2A2A;}
	.st2{fill:#2A2A2A;}
</style>
<g class="st0">
	<path class="st1" d="M433.4,67.7C385.6,27.8,322.6,5.8,256,5.8s-129.6,22-177.4,61.9C27.9,110,0,167,0,228.4
		C0,306,46.6,377.5,121,417.6l5.8,41.7c2.7,19.3,15.5,35.6,33.5,42.9c6.6,2.7,13.5,4,20.4,4c12,0,23.8-3.9,33.5-11.5l56.4-44.1
		c61.1-3,118.4-24.6,162.6-61.5c50.7-42.3,78.6-99.4,78.6-160.7C512,167,484.1,110,433.4,67.7z M180.8,451.6l-9.9-70.9
		c-29.7-11.6-55.4-29-75.1-50.5c-0.3-0.3-0.6-0.6-0.9-0.9c-2-2.2-3.9-4.5-5.7-6.8c-0.8-1-1.7-2-2.5-3.1c-1.4-1.8-2.7-3.7-4-5.6
		c-1.1-1.6-2.3-3.1-3.3-4.7c-1.1-1.7-2.1-3.5-3.2-5.2c-1.1-1.8-2.2-3.5-3.2-5.3c-1.1-2.1-2.2-4.2-3.2-6.3c-0.7-1.5-1.5-3-2.2-4.5
		c-1.5-3.3-2.9-6.6-4.1-10c-0.1-0.3-0.3-0.6-0.4-1c-5.5-15.3-8.5-31.6-8.5-48.4c0-92.8,90.2-168.1,201.5-168.1
		c111.3,0,201.5,75.3,201.5,168.1c0,92.8-90.2,168.1-201.5,168.1c-1.5,0-2.9-0.1-4.3-0.1l-47.4,37L180.8,451.6z"/>
</g>
<g id="qYuFzs.tif" class="st0">
	
		<image style="display:inline;overflow:visible;" width="46" height="44" id="Layer_0" xlink:href="2E63AE39675E043D.png"  transform="matrix(7.3056 0 0 7.3056 1151.9706 95.5522)">
	</image>
</g>
<g>
	<path class="st2" d="M256,76.5c102.9,0,186.6,68.7,186.6,153s-83.7,153-186.6,153c-13.8,0-27.7-1.3-41.1-3.8
		c-1.3-0.2-2.7-0.4-4-0.4c-5.5,0-10.8,2-14.9,5.8c-8.3,7.7-25.3,17.8-48.3,28.8c5.7-17.2,9.7-32.5,10.2-34.4
		c0.4-1.7,0.7-3.5,0.7-5.3c0.1-7.9-4-15.3-10.9-19.3c-24-14.1-43.8-32.8-57.4-54.2c-13.9-21.9-21-45.6-21-70.4
		C69.4,145.2,153.1,76.5,256,76.5 M256,54.5c-115.2,0-208.6,78.4-208.6,175c0,59.4,35.3,111.9,89.2,143.6l0,0
		c0,0-19.3,75.8-36.3,83.4c-1.6,0.7-2.2,1-1.9,1c2.3,0,84.7-31.4,112.5-57c14.5,2.7,29.6,4.1,45.1,4.1c115.2,0,208.6-78.4,208.6-175
		S371.2,54.5,256,54.5L256,54.5z"/>
</g>
</svg>
