<?xml version="1.0" encoding="utf-8"?>
<!-- Generator: Adobe Illustrator 22.0.1, SVG Export Plug-In . SVG Version: 6.00 Build 0)  -->
<svg version="1.1" id="_x31_0" xmlns="http://www.w3.org/2000/svg" xmlns:xlink="http://www.w3.org/1999/xlink" x="0px" y="0px"
	 viewBox="0 0 512 512" style="enable-background:new 0 0 512 512;" xml:space="preserve">
<style type="text/css">
	.st0{display:none;}
	.st1{display:inline;fill:#2A2A2A;}
	.st2{fill:none;stroke:#2A2A2A;stroke-width:7;stroke-miterlimit:10;}
	.st3{fill:none;stroke:#FF0000;stroke-width:10;stroke-linejoin:round;stroke-miterlimit:10;}
</style>
<g class="st0">
	<path class="st1" d="M-630.6,67.7C-678.4,27.8-741.4,5.8-808,5.8s-129.6,22-177.4,61.9c-50.7,42.3-78.6,99.4-78.6,160.7
		c0,77.7,46.6,149.1,121,189.3l5.8,41.7c2.7,19.3,15.5,35.6,33.5,42.9c6.6,2.7,13.5,4,20.4,4c12,0,23.8-3.9,33.5-11.5l56.4-44.1
		c61.1-3,118.4-24.6,162.6-61.5c50.7-42.3,78.6-99.4,78.6-160.7C-552,167-579.9,110-630.6,67.7z M-883.2,451.6l-9.9-70.9
		c-29.7-11.6-55.4-29-75.1-50.5c-0.3-0.3-0.6-0.6-0.9-0.9c-2-2.2-3.9-4.5-5.7-6.8c-0.8-1-1.7-2-2.5-3.1c-1.4-1.8-2.7-3.7-4-5.6
		c-1.1-1.6-2.3-3.1-3.3-4.7c-1.1-1.7-2.1-3.5-3.2-5.2c-1.1-1.8-2.2-3.5-3.2-5.3c-1.1-2.1-2.2-4.2-3.2-6.3c-0.7-1.5-1.5-3-2.2-4.5
		c-1.5-3.3-2.9-6.6-4.1-10c-0.1-0.3-0.3-0.6-0.4-1c-5.5-15.3-8.5-31.6-8.5-48.4c0-92.8,90.2-168.1,201.5-168.1
		c111.3,0,201.5,75.3,201.5,168.1c0,92.8-90.2,168.1-201.5,168.1c-1.5,0-2.9-0.1-4.3-0.1l-47.4,37L-883.2,451.6z"/>
</g>
<path class="st2" d="M-808,35.4c-121.3,0-219.7,87.4-219.7,195.3c0,71.1,42.8,133.4,106.8,167.5l25,79.1l88-51.3
	c121.3,0,219.7-87.4,219.7-195.3S-686.7,35.4-808,35.4z"/>
<g id="G7gV2v.tif">
	
		<image style="overflow:visible;" width="260" height="280" id="Layer_0_1_" xlink:href="2E63AE39675E0438.png"  transform="matrix(2.0157 0 0 2.0157 -538.0471 -26.2045)">
	</image>
</g>
<g id="qYuFzs.tif" class="st0">
	
		<image style="display:inline;overflow:visible;" width="46" height="44" id="Layer_0" xlink:href="2E63AE39675E0439.png"  transform="matrix(7.3056 0 0 7.3056 87.9706 95.5522)">
	</image>
</g>
<path class="st3" d="M256,101.9c-88.7,0-160.5,60.3-160.5,134.7c0,45.7,27.1,86.1,68.7,110.5l0,0c0,0-14.9,58.4-28,64.2
	s61.5-21.3,85.1-43.1c11.2,2.1,22.8,3.2,34.7,3.2c88.7,0,160.5-60.3,160.5-134.7S344.7,101.9,256,101.9z"/>
</svg>
