<?xml version="1.0" encoding="utf-8"?>
<!-- Generator: Adobe Illustrator 22.0.1, SVG Export Plug-In . SVG Version: 6.00 Build 0)  -->
<svg version="1.1" id="レイヤー_1" xmlns="http://www.w3.org/2000/svg" xmlns:xlink="http://www.w3.org/1999/xlink" x="0px"
	 y="0px" viewBox="0 0 1260 840" style="enable-background:new 0 0 1260 840;" xml:space="preserve">
<style type="text/css">
	.st0{fill:#2A2A2A;}
	.st1{enable-background:new    ;}
</style>
<g>
	<path class="st0" d="M630,519.7c95.1,0,171.4-77.1,171.4-171.4S725.1,176.9,630,176.9S458.6,254,458.6,348.3S535.7,519.7,630,519.7
		z M630,211.1c75.4,0,137.1,61.7,137.1,137.1S705.4,485.4,630,485.4s-137.1-61.7-137.1-137.1S554.6,211.1,630,211.1z M570,365.4
		c-14.6,0-25.7,11.1-25.7,25.7s11.1,25.7,25.7,25.7c14.6,0,25.7-11.1,25.7-25.7C595.7,376.6,584.6,365.4,570,365.4z M690,365.4
		c-14.6,0-25.7,11.1-25.7,25.7s11.1,25.7,25.7,25.7c14.6,0,25.7-11.1,25.7-25.7C715.7,376.6,704.6,365.4,690,365.4z M630,254
		c-40.3,0-73.7,24.9-87.4,60h174.9C703.7,278.9,670.3,254,630,254z"/>
	<g class="st1">
		<path class="st0" d="M458.7,568.1h9.6v29.4H505v-29.4h9.6v70.8H505v-32.4h-36.7v32.4h-9.6V568.1z"/>
		<path class="st0" d="M532.9,597.3c2.5-2.3,5.5-4.1,8.8-5.2c3.3-1.2,6.7-1.8,10-1.8c3.5,0,6.5,0.4,9,1.3c2.5,0.9,4.5,2,6.1,3.5
			c1.6,1.5,2.8,3.1,3.6,5c0.8,1.9,1.1,3.9,1.1,6v24.2c0,1.7,0,3.2,0.1,4.6c0.1,1.4,0.2,2.7,0.3,4h-8c-0.2-2.4-0.3-4.8-0.3-7.2h-0.2
			c-2,3.1-4.4,5.2-7.1,6.5c-2.7,1.3-5.9,1.9-9.5,1.9c-2.2,0-4.3-0.3-6.3-0.9c-2-0.6-3.8-1.5-5.2-2.7c-1.5-1.2-2.7-2.7-3.5-4.4
			c-0.9-1.8-1.3-3.8-1.3-6.2c0-3.1,0.7-5.6,2-7.7c1.4-2.1,3.2-3.8,5.6-5c2.4-1.3,5.1-2.2,8.3-2.8c3.2-0.6,6.5-0.9,10.1-0.9h6.6v-2
			c0-1.2-0.2-2.4-0.7-3.6c-0.5-1.2-1.2-2.3-2.1-3.2c-0.9-1-2.1-1.7-3.5-2.3c-1.4-0.6-3.1-0.9-5-0.9c-1.7,0-3.2,0.2-4.5,0.5
			c-1.3,0.3-2.5,0.8-3.5,1.2c-1.1,0.5-2,1.1-2.9,1.8c-0.9,0.7-1.7,1.3-2.5,1.9L532.9,597.3z M558.3,616.1c-2.1,0-4.3,0.1-6.5,0.3
			c-2.2,0.2-4.3,0.7-6.1,1.4c-1.8,0.7-3.3,1.6-4.5,2.8c-1.2,1.2-1.8,2.7-1.8,4.6c0,2.7,0.9,4.7,2.8,5.9c1.8,1.2,4.3,1.8,7.5,1.8
			c2.5,0,4.6-0.4,6.3-1.2c1.7-0.8,3.1-1.9,4.2-3.2c1.1-1.3,1.8-2.8,2.3-4.5c0.5-1.6,0.7-3.2,0.7-4.8v-3H558.3z"/>
		<path class="st0" d="M621.5,604.1c-1.7-1.7-3.4-3-5.2-4c-1.8-0.9-4-1.3-6.6-1.3c-2.5,0-4.6,0.4-6.4,1.3c-1.8,0.9-3.4,2.1-4.6,3.7
			c-1.2,1.6-2.2,3.4-2.8,5.4c-0.6,2-1,4.2-1,6.4s0.4,4.3,1.1,6.2c0.7,2,1.8,3.7,3.1,5.1c1.3,1.5,2.9,2.6,4.8,3.5
			c1.9,0.8,4,1.2,6.3,1.2c2.5,0,4.7-0.5,6.5-1.3c1.8-0.9,3.5-2.2,5-4l6.4,6.4c-2.3,2.6-5,4.5-8.2,5.6c-3.1,1.1-6.4,1.7-9.8,1.7
			c-3.7,0-7-0.6-10-1.8c-3-1.2-5.7-2.9-7.9-5.1c-2.2-2.2-3.9-4.8-5.1-7.8c-1.2-3-1.8-6.4-1.8-10c0-3.7,0.6-7,1.8-10.1s2.9-5.7,5-7.9
			c2.2-2.2,4.8-3.9,7.8-5.2c3-1.2,6.4-1.8,10.2-1.8c3.5,0,6.8,0.6,10,1.8c3.2,1.2,5.9,3.1,8.2,5.7L621.5,604.1z"/>
		<path class="st0" d="M639.2,563.3h9v48.8l20.4-20.5h12.5L659,613.1l24,25.8h-12.8l-22-24.6v24.6h-9V563.3z"/>
		<path class="st0" d="M730.2,568.1h9.6v70.8h-9.6V568.1z"/>
		<path class="st0" d="M758.2,591.5h9v7.3h0.2c1.1-2.5,3.1-4.6,5.9-6.2c2.8-1.6,6-2.3,9.7-2.3c2.3,0,4.5,0.3,6.5,1
			c2.1,0.7,3.9,1.8,5.5,3.2c1.6,1.5,2.8,3.3,3.8,5.6c0.9,2.3,1.4,5,1.4,8.2v30.5h-9v-28c0-2.2-0.3-4.1-0.9-5.7
			c-0.6-1.6-1.4-2.8-2.4-3.8c-1-1-2.2-1.7-3.5-2.1c-1.3-0.4-2.7-0.7-4-0.7c-1.9,0-3.6,0.3-5.2,0.9c-1.6,0.6-3,1.5-4.2,2.8
			s-2.1,3-2.8,5c-0.7,2-1,4.4-1,7.1v24.4h-9V591.5z"/>
	</g>
</g>
</svg>
