<?xml version="1.0" encoding="utf-8"?>
<!-- Generator: Adobe Illustrator 22.0.1, SVG Export Plug-In . SVG Version: 6.00 Build 0)  -->
<svg version="1.1" id="レイヤー_1" xmlns="http://www.w3.org/2000/svg" xmlns:xlink="http://www.w3.org/1999/xlink" x="0px"
	 y="0px" viewBox="0 0 512 512" style="enable-background:new 0 0 512 512;" xml:space="preserve">
<path d="M256,464c115.4,0,208-93.6,208-208S371.4,48,256,48S48,141.6,48,256S141.6,464,256,464z M256,89.6
	c91.5,0,166.4,74.9,166.4,166.4c0,91.5-74.9,166.4-166.4,166.4S89.6,347.5,89.6,256S164.5,89.6,256,89.6z M183.2,276.8
	c-17.7,0-31.2,13.5-31.2,31.2c0,17.7,13.5,31.2,31.2,31.2c17.7,0,31.2-13.5,31.2-31.2C214.4,290.3,200.9,276.8,183.2,276.8z
	 M328.8,276.8c-17.7,0-31.2,13.5-31.2,31.2c0,17.7,13.5,31.2,31.2,31.2c17.7,0,31.2-13.5,31.2-31.2
	C360,290.3,346.5,276.8,328.8,276.8z M256,141.6c-48.9,0-89.4,30.2-106.1,72.8h212.2C345.4,171.8,304.9,141.6,256,141.6z"/>
</svg>
